<svg xmlns="http://www.w3.org/2000/svg" width="30" height="26" fill="none"><path fill="url(#a)" fill-rule="evenodd" d="M0 10.536c0-5.523 4.477-10 10-10h10c5.523 0 10 4.477 10 10s-4.477 10-10 10h-3.811l2.101 2.848c.82 1.11-.428 2.564-1.65 1.923l-10.9-5.721A10 10 0 0 1 0 10.536m4.2 0a5.8 5.8 0 0 1 5.8-5.8h10a5.8 5.8 0 0 1 0 11.6H10a5.8 5.8 0 0 1-5.8-5.8" clip-rule="evenodd"/><path fill="url(#b)" fill-rule="evenodd" d="M11 12.536a2 2 0 1 0 0-4 2 2 0 0 0 0 4m7.8 0a2 2 0 1 0 0-4 2 2 0 0 0 0 4" clip-rule="evenodd"/><defs><radialGradient id="a" cx="0" cy="0" r="1" gradientTransform="rotate(53.402 -6.52 14.863)scale(14.7602 14.614)" gradientUnits="userSpaceOnUse"><stop stop-color="#3FB"/><stop offset="1" stop-color="#2BD19A"/></radialGradient><linearGradient id="b" x1="14.9" x2="14.9" y1="8.536" y2="12.536" gradientUnits="userSpaceOnUse"><stop stop-color="#3FB"/><stop offset="1" stop-color="#27BF8D"/></linearGradient></defs></svg>