<svg xmlns="http://www.w3.org/2000/svg" width="50" height="42" fill="none"><g fill-rule="evenodd" clip-path="url(#a)" clip-rule="evenodd"><path fill="url(#b)" d="M0 16.667C0 7.462 7.462 0 16.667 0h16.666C42.538 0 50 7.462 50 16.667c0 9.204-7.462 16.666-16.667 16.666h-6.352l3.503 4.746c1.366 1.851-.714 4.274-2.75 3.205L9.567 31.75C3.913 29.084 0 23.332 0 16.667m7 0A9.667 9.667 0 0 1 16.667 7h16.666A9.667 9.667 0 0 1 43 16.667c0 5.338-4.328 9.666-9.667 9.666H16.667c-5.34 0-9.667-4.328-9.667-9.666"/><path fill="url(#c)" d="M31.333 20a3.333 3.333 0 1 0 0-6.667 3.333 3.333 0 0 0 0 6.667m-13 0a3.333 3.333 0 1 0 0-6.667 3.333 3.333 0 0 0 0 6.667"/></g><defs><radialGradient id="b" cx="0" cy="0" r="1" gradientTransform="rotate(53.402 -9.978 24.325)scale(24.6003 24.3567)" gradientUnits="userSpaceOnUse"><stop stop-color="#3FB"/><stop offset="1" stop-color="#2BD19A"/></radialGradient><linearGradient id="c" x1="24.833" x2="24.833" y1="13.333" y2="20" gradientUnits="userSpaceOnUse"><stop stop-color="#3FB"/><stop offset="1" stop-color="#27BF8D"/></linearGradient><clipPath id="a"><path fill="#fff" d="M0 0h50v42H0z"/></clipPath></defs></svg>