<svg xmlns="http://www.w3.org/2000/svg" width="133" height="24" fill="none"><g fill-rule="evenodd" clip-path="url(#a)" clip-rule="evenodd"><path fill="url(#b)" d="M0 9.524A9.524 9.524 0 0 1 9.524 0h9.524a9.524 9.524 0 0 1 9.523 9.524 9.524 9.524 0 0 1-9.523 9.524h-3.63l2.001 2.712c.78 1.057-.407 2.442-1.571 1.831L5.467 18.143A9.53 9.53 0 0 1 0 9.523m4 0A5.524 5.524 0 0 1 9.524 4h9.524a5.524 5.524 0 0 1 0 11.048H9.524A5.524 5.524 0 0 1 4 9.524"/><path fill="url(#c)" d="M17.905 11.429a1.905 1.905 0 1 0 0-3.81 1.905 1.905 0 0 0 0 3.81m-7.429 0a1.905 1.905 0 1 0 0-3.81 1.905 1.905 0 0 0 0 3.81"/></g><path fill="#171D1B" d="M35.863 21.982a.29.29 0 0 1-.292-.292V2.674c0-.161.131-.292.292-.292h6.764q2.352 0 3.892.812 1.54.784 2.296 2.128t.756 3.08a6.3 6.3 0 0 1-.728 2.996q-.727 1.344-2.268 2.184-1.539.812-3.948.812h-3.404a.29.29 0 0 0-.292.292v7.004c0 .161-.13.292-.291.292zm3.068-10.624c0 .161.131.292.292.292h3.208q1.989 0 2.856-.868.869-.895.868-2.38 0-1.54-.868-2.408-.867-.868-2.856-.868h-3.208a.29.29 0 0 0-.292.292zM51.51 21.982a.29.29 0 0 1-.291-.292V2.114c0-.161.13-.292.291-.292h2.777c.161 0 .291.13.291.292v6.901c0 .295.425.428.627.212a5.2 5.2 0 0 1 1.278-.993q1.204-.7 2.716-.7 1.736 0 2.94.728 1.203.7 1.82 2.1.644 1.373.644 3.444v7.884c0 .161-.131.292-.292.292h-2.749a.29.29 0 0 1-.291-.292v-7.576q0-1.82-.785-2.772-.755-.952-2.323-.952-1.009 0-1.82.504-.812.476-1.289 1.4-.476.896-.476 2.212v7.184c0 .161-.13.292-.291.292zM73.585 22.318q-2.016 0-3.64-.924a6.9 6.9 0 0 1-2.52-2.604q-.896-1.68-.896-3.836 0-2.212.924-3.864.924-1.68 2.52-2.604 1.624-.952 3.64-.952t3.612.952a6.44 6.44 0 0 1 2.52 2.576q.924 1.652.924 3.864 0 2.213-.924 3.864a6.83 6.83 0 0 1-2.548 2.604q-1.596.924-3.612.924m0-2.884a3.4 3.4 0 0 0 1.82-.504q.84-.504 1.344-1.512t.504-2.492-.504-2.464q-.476-1.008-1.316-1.512a3.4 3.4 0 0 0-1.82-.504q-.98 0-1.82.504t-1.344 1.512q-.504.98-.504 2.464t.504 2.492 1.316 1.512q.84.504 1.82.504M89.4 22.318q-2.1 0-3.697-.896a6.5 6.5 0 0 1-2.492-2.576q-.895-1.651-.895-3.808 0-2.24.867-3.92a6.64 6.64 0 0 1 2.492-2.632q1.625-.952 3.752-.952 2.073 0 3.612.924a6.36 6.36 0 0 1 2.38 2.492q.84 1.54.84 3.472v.616q0 .22-.023.452a.28.28 0 0 1-.283.248H85.015a.29.29 0 0 1-.291-.292v-1.572c0-.161.13-.292.291-.292h7.554a.28.28 0 0 0 .282-.302q-.134-1.324-1.016-2.106-.98-.896-2.435-.896-1.037 0-1.904.476-.869.476-1.372 1.428-.505.924-.504 2.352v.812q0 1.315.475 2.268.505.952 1.344 1.456a3.95 3.95 0 0 0 1.933.476q1.175 0 1.931-.504.702-.45 1.067-1.17a.31.31 0 0 1 .273-.174h2.833a.28.28 0 0 1 .269.372 6.6 6.6 0 0 1-1.166 2.008 6.56 6.56 0 0 1-2.211 1.652q-1.317.588-2.968.588M98.487 21.982a.29.29 0 0 1-.292-.292V8.162c0-.161.13-.292.292-.292h2.414c.149 0 .274.112.29.26l.122 1.135c.03.287.446.377.626.151a5 5 0 0 1 1.324-1.154q1.204-.728 2.856-.728 1.708 0 2.912.728 1.204.7 1.848 2.072.672 1.372.672 3.416v7.94c0 .161-.13.292-.292.292h-2.776a.29.29 0 0 1-.292-.292v-7.632q0-1.764-.784-2.716t-2.324-.952q-1.008 0-1.82.476-.784.476-1.26 1.4-.448.896-.448 2.184v7.24c0 .161-.13.292-.292.292zM114.359 21.982a.29.29 0 0 1-.292-.292V8.162c0-.161.13-.292.292-.292h2.776c.161 0 .292.13.292.292V21.69a.29.29 0 0 1-.292.292zm1.388-16.352q-.924 0-1.54-.56a1.94 1.94 0 0 1-.588-1.428q0-.868.588-1.4.616-.56 1.54-.56t1.512.56q.616.532.616 1.4a1.9 1.9 0 0 1-.616 1.428q-.588.56-1.512.56M119.39 21.982a.292.292 0 0 1-.238-.46l4.54-6.428a.29.29 0 0 0 0-.336l-4.54-6.428a.292.292 0 0 1 .238-.46h2.896a.29.29 0 0 1 .24.126l3.201 4.65a.29.29 0 0 0 .48 0l3.201-4.65a.3.3 0 0 1 .24-.126h2.896c.236 0 .375.267.238.46l-4.54 6.428a.29.29 0 0 0 0 .336l4.54 6.428a.292.292 0 0 1-.238.46h-2.896a.3.3 0 0 1-.24-.126l-3.201-4.65a.29.29 0 0 0-.48 0l-3.201 4.65a.29.29 0 0 1-.24.126z"/><defs><radialGradient id="b" cx="0" cy="0" r="1" gradientTransform="matrix(8.38096 11.2857 -11.17395 8.29797 8.857 10.19)" gradientUnits="userSpaceOnUse"><stop stop-color="#3FB"/><stop offset="1" stop-color="#2BD19A"/></radialGradient><linearGradient id="c" x1="14.191" x2="14.191" y1="7.619" y2="11.429" gradientUnits="userSpaceOnUse"><stop stop-color="#3FB"/><stop offset="1" stop-color="#27BF8D"/></linearGradient><clipPath id="a"><path fill="#fff" d="M0 0h28.571v24H0z"/></clipPath></defs></svg>